<svg version="1.0" xmlns="http://www.w3.org/2000/svg"
 width="80" height="80" viewBox="0 0 1024 1024"
 preserveAspectRatio="xMidYMid meet">

<g transform="translate(0.000000,1024) scale(0.100000,-0.100000)"
fill="currentColor" stroke="none">
<path d="M4920 8523 c-278 -18 -599 -95 -878 -211 -938 -392 -1599 -1307
-1658 -2299 l-7 -112 31 -30 c30 -31 31 -31 137 -31 l107 0 32 33 c30 29 34
39 40 117 53 638 370 1240 873 1657 188 156 510 332 753 413 138 46 333 91
480 111 137 19 468 16 615 -5 366 -52 702 -179 1005 -381 605 -402 992 -1038
1060 -1740 19 -199 25 -205 183 -205 108 0 109 0 139 31 l31 30 -7 112 c-51
837 -541 1643 -1282 2109 -128 80 -370 196 -514 246 -373 129 -745 180 -1140
155z"/>
<path d="M5269 7743 c-26 -26 -127 -140 -225 -253 -435 -499 -599 -693 -602
-711 -8 -47 5 -49 258 -49 268 0 267 0 256 -70 -3 -22 -38 -162 -78 -312 -88
-336 -89 -341 -53 -364 24 -16 30 -16 51 -3 12 8 163 185 335 394 172 209 361
439 421 510 101 123 124 164 98 180 -6 4 -107 6 -225 5 -230 -1 -255 4 -255
45 0 24 36 185 111 498 36 152 35 170 -17 175 -23 2 -38 -6 -75 -45z"/>
<path d="M6965 6070 c-645 -202 -1533 -470 -1559 -470 -18 0 -42 12 -64 31
-58 51 -117 72 -202 73 -62 0 -84 -5 -126 -27 -174 -89 -219 -317 -92 -462 82
-93 211 -128 325 -87 43 15 96 22 200 27 l141 6 444 231 c243 126 535 277 648
335 618 319 620 320 620 363 0 22 -45 60 -69 59 -9 0 -128 -36 -266 -79z"/>
<path d="M2380 5453 c-18 -23 -21 -36 -16 -73 8 -54 78 -353 246 -1040 70
-289 156 -640 190 -780 118 -488 262 -1045 277 -1078 29 -60 46 -64 316 -60
270 3 294 9 322 71 9 18 49 151 91 297 42 146 138 481 214 745 76 264 141 480
146 480 4 0 96 -309 204 -686 108 -378 209 -726 226 -775 41 -123 49 -128 212
-132 207 -6 234 11 264 165 258 1337 368 1925 368 1965 0 57 -34 78 -125 78
-58 0 -78 -4 -98 -20 -29 -23 -30 -26 -167 -500 -115 -398 -190 -642 -201
-654 -5 -6 -9 -8 -9 -5 0 3 -83 337 -185 743 -128 511 -191 746 -205 767 -39
54 -60 59 -270 59 l-192 0 -27 -27 c-20 -21 -36 -61 -65 -163 -93 -331 -418
-1386 -431 -1398 -3 -3 -7 -3 -9 -1 -6 6 -149 597 -321 1319 -85 360 -161 666
-167 678 -25 48 -49 52 -317 52 l-250 0 -21 -27z"/>
<path d="M7253 5456 l-28 -24 -6 -1079 c-5 -952 -7 -1086 -22 -1147 -41 -171
-165 -284 -348 -317 -191 -34 -396 58 -475 212 -59 118 -58 87 -62 1021 l-3
858 -26 20 c-24 19 -40 20 -253 20 l-227 0 -24 -26 -24 -26 1 -866 c1 -758 3
-879 18 -962 50 -289 183 -495 400 -619 190 -108 369 -151 636 -151 537 0 899
242 1009 675 40 159 42 236 39 1336 -3 1023 -4 1058 -22 1078 -19 20 -27 21
-287 21 l-268 0 -28 -24z"/>
</g>
</svg>
