<svg version="1.1" xmlns="http://www.w3.org/2000/svg" xmlns:xlink="http://www.w3.org/1999/xlink" viewBox="396,96,700,700"><g id="document" fill="transparent" fill-rule="nonzero" stroke="currentColor" stroke-width="0" stroke-linecap="butt" stroke-linejoin="miter" stroke-miterlimit="10" stroke-dasharray="" stroke-dashoffset="0" font-family="none" font-weight="none" font-size="none" text-anchor="none" style="mix-blend-mode: normal"><rect x="396" y="68.57143" transform="scale(1,1.4)" width="700" height="500" id="Shape 1 1" vector-effect="non-scaling-stroke"/></g><g fill="currentColor" fill-rule="nonzero" stroke="none" stroke-width="1" stroke-linecap="butt" stroke-linejoin="miter" stroke-miterlimit="10" stroke-dasharray="" stroke-dashoffset="0" font-family="none" font-weight="none" font-size="none" text-anchor="none" style="mix-blend-mode: normal"><g id="stage"><g id="layer1 1"><g id="Group 1"><path d="M723.66517,100.67978c-32.27469,2.02694 -69.54277,10.6875 -101.94428,23.72442c-108.90331,44.08596 -185.64289,146.99926 -192.50681,258.55776l-0.80845,12.5916l3.59841,3.37823c3.48744,3.48572 3.59841,3.48572 15.89957,3.48572h12.42798l3.70937,-3.71606c3.48744,-3.25539 3.94715,-4.3917 4.64464,-13.15976c6.15058,-71.75677 42.95895,-139.45965 101.35775,-186.35569c21.82822,-17.55146 59.20726,-37.34484 87.42384,-46.45072c16.02638,-5.17484 38.66305,-10.24219 55.73567,-12.48411c15.89957,-2.13443 54.34069,-1.79661 71.39745,0.56816c42.49924,5.85049 81.51104,20.1312 116.68665,42.85751c70.24026,45.20692 115.18071,116.7487 123.07501,195.6919c2.20343,22.38848 2.90092,23.04877 21.24169,23.04877c12.53894,0 12.6499,0 16.13735,-3.48572l3.59841,-3.37823l-0.80845,-12.5916c-5.92865,-94.12989 -62.80566,-184.78941 -148.85038,-237.19811c-14.86919,-8.99839 -42.95895,-22.05066 -59.68282,-27.67081c-43.30769,-14.51105 -86.50442,-20.23869 -132.36429,-17.42862" id="Path 1"/><path d="M764.18291,188.40638c-3.01188,2.91757 -14.74237,15.7395 -26.12411,28.45395c-50.5045,56.12476 -69.54277,77.94508 -69.89151,79.97202c-0.93527,5.28233 0.58652,5.51266 29.9603,5.51266c31.1175,0 31.00653,0 29.72252,7.87743c-0.34874,2.47225 -4.40686,18.22711 -9.0515,35.08757c-10.22455,37.79016 -10.33551,38.35831 -6.15058,40.93806c2.78995,1.79661 3.48744,1.79661 5.92865,0.33782c1.39498,-0.90598 18.9273,-20.80685 38.90083,-44.31629c19.97353,-23.50944 41.91272,-49.36829 48.87175,-57.3532c11.73049,-13.8354 14.39363,-18.44209 11.38174,-20.23869c-0.69749,-0.44531 -12.42798,-0.67565 -26.12411,-0.56816c-26.71064,0.10749 -29.61156,-0.44531 -29.61156,-5.06735c0,-2.70259 4.18493,-20.80685 12.88768,-56.00191c4.18493,-17.09079 4.05811,-19.11773 -1.9815,-19.68589c-2.66314,-0.23033 -4.40686,0.67565 -8.70275,5.06735M961.09658,376.55867c-74.8849,22.71095 -177.98637,52.85401 -180.99825,52.85401c-2.09247,0 -4.88242,-1.35129 -7.43459,-3.48572c-6.7371,-5.743 -13.58517,-8.09241 -23.44512,-8.21525c-7.19681,0 -9.74899,0.56816 -14.63141,3.04041c-20.19546,10.01186 -25.42662,35.65573 -10.68425,51.96338c9.52706,10.45717 24.49136,14.40356 37.72778,9.78152c4.99338,-1.68912 11.14396,-2.47225 23.2232,-3.04041l16.37513,-0.67565l51.55074,-25.98169c28.21658,-14.17323 62.10818,-31.15653 75.23364,-37.68267c71.7462,-35.87071 71.98398,-35.99355 71.98398,-40.83057c0,-2.47225 -5.23116,-6.74111 -8.00527,-6.63362c-1.04623,0 -14.86919,4.05388 -30.87972,8.8909M428.77023,445.95067c-2.09247,2.57974 -2.44121,4.05388 -1.85469,8.21525c0.93527,6.08082 9.0515,39.69425 28.56532,116.96368c8.13208,32.50783 18.11885,71.9871 22.066,87.7266c13.69614,54.88095 30.42001,117.53184 32.16373,121.2479c3.36063,6.74111 5.34213,7.20178 36.68155,6.74111c31.35528,-0.33782 34.12938,-1.01347 37.37904,-7.98492c1.04623,-2.02694 5.69087,-16.9833 10.57329,-33.39845c4.88242,-16.41515 16.02638,-54.09781 24.8401,-83.79556c8.81372,-29.69775 16.37513,-53.99033 16.9458,-53.99033c0.45971,0 11.14396,34.74975 23.6829,77.14659c12.53894,42.51968 24.26943,81.64578 26.23508,87.15844c4.7556,13.8354 5.69087,14.40356 24.61817,14.84888c24.03165,0.67565 27.17035,-1.2438 30.65779,-18.54958c29.94445,-150.36214 42.72117,-216.49875 42.72117,-220.99794c0,-6.40329 -3.94715,-8.76805 -14.52044,-8.76805c-6.7371,0 -9.0515,0.44531 -11.38174,2.24192c-3.36063,2.57974 -3.48744,2.91757 -19.38701,56.23224c-13.34739,44.7616 -22.066,72.20208 -23.33416,73.55337c-0.58652,0.67565 -1.04623,0.90598 -1.04623,0.56816c0,-0.33782 -9.63802,-37.89765 -21.47947,-83.56523c-14.86919,-57.47605 -22.17696,-83.90305 -23.79387,-86.26782c-4.53367,-6.08082 -6.95903,-6.63362 -31.35528,-6.63362h-22.28793l-3.1387,3.04041c-2.31439,2.36476 -4.18493,6.86396 -7.54556,18.3346c-10.79522,37.222 -48.53886,155.8748 -50.0448,157.22609c-0.34874,0.33782 -0.80845,0.33782 -1.04623,0.10749c-0.69749,-0.67565 -17.29454,-67.15008 -37.26808,-148.35055c-9.8758,-40.49274 -18.68952,-74.90467 -19.38701,-76.25596c-2.90092,-5.40517 -5.69087,-5.85049 -36.80837,-5.85049h-29.02503zM994.54433,445.61285l-3.24966,2.70259l-0.69749,121.35539c-0.58652,107.07467 -0.80845,122.13852 -2.55217,129.00248c-4.7556,19.22522 -19.14923,31.93967 -40.40677,35.65573c-22.17696,3.82355 -45.97083,-6.52613 -55.14914,-23.84726c-6.84807,-13.26725 -6.7371,-9.78152 -7.19681,-114.82925l-0.34874,-96.49465l-3.01188,-2.24192c-2.78995,-2.13443 -4.64464,-2.24192 -29.37378,-2.24192h-26.36189l-2.78995,2.91757l-2.78995,2.91757l0.11096,97.40064c0.11096,85.25435 0.34874,98.85942 2.09247,108.19563c5.80184,32.50783 21.24169,55.66409 46.44639,69.62234c22.066,12.14629 42.84798,16.9833 73.83866,16.9833c62.34596,0 104.36964,-27.21014 117.14636,-75.91814c4.64464,-17.88929 4.88242,-26.54985 4.53367,-150.25465c-0.34874,-115.05959 -0.45971,-118.99062 -2.55217,-121.2479c-2.20343,-2.24192 -3.1387,-2.36476 -33.32093,-2.36476h-31.1175z" id="CompoundPath 1"/></g></g></g></g></svg>